<svg width="980" height="188" viewBox="0 0 980 188" fill="none" xmlns="http://www.w3.org/2000/svg">
<path d="M841.414 12H967.363C974.312 12 980 17.461 980 24.3862V104.574C980 111.5 974.312 117.377 967.363 117.377H918.293V138.16H954.1C959.363 138.16 959.788 155.375 960.422 156H848.585C848.585 156 848.585 138.16 854.907 138.16H890.714V117.377H841.428C834.479 117.377 829 111.5 829 104.574V24.3862C829 17.461 834.479 12 841.428 12H841.414ZM841.414 104.574H967.363V24.3862H841.414V104.574Z" fill="black"/>
<path d="M441.01 96H433.137L445.133 61.2509H454.6L466.579 96H458.707L450.002 69.1916H449.731L441.01 96ZM440.518 82.3413H459.114V88.0763H440.518V82.3413ZM470.762 96V61.2509H484.471C487.107 61.2509 489.352 61.7543 491.207 62.761C493.063 63.7564 494.477 65.1421 495.449 66.918C496.433 68.6826 496.925 70.7187 496.925 73.0262C496.925 75.3338 496.428 77.3699 495.432 79.1345C494.437 80.8991 492.995 82.2734 491.106 83.2575C489.228 84.2416 486.954 84.7337 484.285 84.7337H475.547V78.846H483.097C484.511 78.846 485.676 78.6028 486.592 78.1164C487.52 77.6187 488.21 76.9344 488.662 76.0634C489.126 75.1811 489.358 74.1687 489.358 73.0262C489.358 71.8725 489.126 70.8657 488.662 70.0061C488.21 69.1351 487.52 68.462 486.592 67.9869C485.665 67.5005 484.488 67.2573 483.063 67.2573H478.109V96H470.762ZM509.044 61.2509V96H501.698V61.2509H509.044Z" fill="#0E0B01"/>
<path fill-rule="evenodd" clip-rule="evenodd" d="M17 34.4651C17 23.2789 25.9284 14.6166 37.0133 9.07521C48.4237 3.37105 63.8062 0 80.5 0C97.1936 0 112.577 3.37105 123.987 9.07521C135.072 14.6166 144 23.2789 144 34.4651V121.535C144 132.721 135.072 141.383 123.987 146.924C112.577 152.629 97.1936 156 80.5 156C63.8062 156 48.4237 152.629 37.0133 146.924C25.9284 141.383 17 132.721 17 121.535V34.4651ZM27.8857 34.4651C27.8857 29.6222 31.9538 23.7729 41.8815 18.8099C51.4836 14.0097 65.1297 10.8837 80.5 10.8837C95.8706 10.8837 109.516 14.0097 119.118 18.8099C129.046 23.7729 133.114 29.6222 133.114 34.4651C133.114 39.308 129.046 45.1574 119.118 50.1203C109.516 54.9205 95.8706 58.0465 80.5 58.0465C65.1297 58.0465 51.4836 54.9205 41.8815 50.1203C31.9538 45.1574 27.8857 39.308 27.8857 34.4651ZM27.8857 121.535C27.8857 126.377 31.9538 132.227 41.8815 137.19C51.4836 141.99 65.1297 145.116 80.5 145.116C95.8706 145.116 109.516 141.99 119.118 137.19C129.046 132.227 133.114 126.377 133.114 121.535V97.6429C130.381 99.8233 127.279 101.744 123.987 103.39C112.577 109.094 97.1936 112.465 80.5 112.465C63.8062 112.465 48.4237 109.094 37.0133 103.39C33.7215 101.744 30.6198 99.8233 27.8857 97.6429V121.535ZM133.114 54.1082V78C133.114 82.8425 129.046 88.6922 119.118 93.6552C109.516 98.4556 95.8706 101.581 80.5 101.581C65.1297 101.581 51.4836 98.4556 41.8815 93.6552C31.9538 88.6922 27.8857 82.8425 27.8857 78V54.1082C30.6198 56.2886 33.7215 58.2094 37.0133 59.855C48.4237 65.5592 63.8062 68.9302 80.5 68.9302C97.1936 68.9302 112.577 65.5592 123.987 59.855C127.279 58.2094 130.381 56.2886 133.114 54.1082Z" fill="black"/>
<path d="M338.477 51.9749C339.844 50.608 339.844 48.392 338.477 47.0251L316.203 24.7513C314.836 23.3844 312.62 23.3844 311.253 24.7513C309.886 26.1181 309.886 28.3342 311.253 29.701L331.052 49.5L311.253 69.299C309.886 70.6658 309.886 72.8819 311.253 74.2487C312.62 75.6156 314.836 75.6156 316.203 74.2487L338.477 51.9749ZM211.998 53H336.002V46H211.998V53Z" fill="#0E0B01"/>
<path d="M209.525 99.5251C208.158 100.892 208.158 103.108 209.525 104.475L231.799 126.749C233.166 128.116 235.382 128.116 236.749 126.749C238.116 125.382 238.116 123.166 236.749 121.799L216.95 102L236.749 82.201C238.116 80.8342 238.116 78.6181 236.749 77.2513C235.382 75.8844 233.166 75.8844 231.799 77.2513L209.525 99.5251ZM336.004 98.5L212 98.5V105.5L336.004 105.5V98.5Z" fill="#0E0B01"/>
<path d="M735.479 52.4749C736.846 51.108 736.846 48.892 735.479 47.5251L713.205 25.2513C711.838 23.8844 709.622 23.8844 708.255 25.2513C706.888 26.6181 706.888 28.8342 708.255 30.201L728.054 50L708.255 69.799C706.888 71.1658 706.888 73.3819 708.255 74.7487C709.622 76.1156 711.838 76.1156 713.205 74.7487L735.479 52.4749ZM609 53.5H733.004V46.5H609V53.5Z" fill="#0E0B01"/>
<path d="M606.527 100.025C605.16 101.392 605.16 103.608 606.527 104.975L628.801 127.249C630.168 128.616 632.384 128.616 633.751 127.249C635.118 125.882 635.118 123.666 633.751 122.299L613.952 102.5L633.751 82.701C635.118 81.3342 635.118 79.1181 633.751 77.7513C632.384 76.3844 630.168 76.3844 628.801 77.7513L606.527 100.025ZM733.006 99L609.002 99V106L733.006 106V99Z" fill="#0E0B01"/>
<path d="M1.21364 183V169.036H6.80455C7.83182 169.036 8.68864 169.189 9.375 169.493C10.0614 169.798 10.5773 170.22 10.9227 170.761C11.2682 171.298 11.4409 171.916 11.4409 172.616C11.4409 173.161 11.3318 173.641 11.1136 174.055C10.8955 174.464 10.5955 174.8 10.2136 175.064C9.83636 175.323 9.40455 175.507 8.91818 175.616V175.752C9.45 175.775 9.94773 175.925 10.4114 176.202C10.8795 176.48 11.2591 176.868 11.55 177.368C11.8409 177.864 11.9864 178.455 11.9864 179.141C11.9864 179.882 11.8023 180.543 11.4341 181.125C11.0705 181.702 10.5318 182.159 9.81818 182.495C9.10455 182.832 8.225 183 7.17955 183H1.21364ZM4.16591 180.586H6.57273C7.39546 180.586 7.99546 180.43 8.37273 180.116C8.75 179.798 8.93864 179.375 8.93864 178.848C8.93864 178.461 8.84546 178.12 8.65909 177.825C8.47273 177.53 8.20682 177.298 7.86136 177.13C7.52045 176.961 7.11364 176.877 6.64091 176.877H4.16591V180.586ZM4.16591 174.88H6.35455C6.75909 174.88 7.11818 174.809 7.43182 174.668C7.75 174.523 8 174.318 8.18182 174.055C8.36818 173.791 8.46136 173.475 8.46136 173.107C8.46136 172.602 8.28182 172.195 7.92273 171.886C7.56818 171.577 7.06364 171.423 6.40909 171.423H4.16591V174.88ZM16.8392 183.198C16.171 183.198 15.5756 183.082 15.0528 182.85C14.5301 182.614 14.1165 182.266 13.8119 181.807C13.5119 181.343 13.3619 180.766 13.3619 180.075C13.3619 179.493 13.4688 179.005 13.6824 178.609C13.896 178.214 14.1869 177.895 14.5551 177.655C14.9233 177.414 15.3415 177.232 15.8097 177.109C16.2824 176.986 16.7778 176.9 17.296 176.85C17.9051 176.786 18.396 176.727 18.7688 176.673C19.1415 176.614 19.4119 176.527 19.5801 176.414C19.7483 176.3 19.8324 176.132 19.8324 175.909V175.868C19.8324 175.436 19.696 175.102 19.4233 174.866C19.1551 174.63 18.7733 174.511 18.2778 174.511C17.7551 174.511 17.3392 174.627 17.0301 174.859C16.721 175.086 16.5165 175.373 16.4165 175.718L13.7301 175.5C13.8665 174.864 14.1347 174.314 14.5347 173.85C14.9347 173.382 15.4506 173.023 16.0824 172.773C16.7188 172.518 17.4551 172.391 18.2915 172.391C18.8733 172.391 19.4301 172.459 19.9619 172.595C20.4983 172.732 20.9733 172.943 21.3869 173.23C21.8051 173.516 22.1347 173.884 22.3756 174.334C22.6165 174.78 22.7369 175.314 22.7369 175.936V183H19.9824V181.548H19.9006C19.7324 181.875 19.5074 182.164 19.2256 182.414C18.9438 182.659 18.6051 182.852 18.2097 182.993C17.8142 183.13 17.3574 183.198 16.8392 183.198ZM17.671 181.193C18.0983 181.193 18.4756 181.109 18.8028 180.941C19.1301 180.768 19.3869 180.536 19.5733 180.245C19.7597 179.955 19.8528 179.625 19.8528 179.257V178.145C19.7619 178.205 19.6369 178.259 19.4778 178.309C19.3233 178.355 19.1483 178.398 18.9528 178.439C18.7574 178.475 18.5619 178.509 18.3665 178.541C18.171 178.568 17.9938 178.593 17.8347 178.616C17.4938 178.666 17.196 178.745 16.9415 178.855C16.6869 178.964 16.4892 179.111 16.3483 179.298C16.2074 179.48 16.1369 179.707 16.1369 179.98C16.1369 180.375 16.2801 180.677 16.5665 180.886C16.8574 181.091 17.2256 181.193 17.671 181.193ZM33.704 175.514L31.0449 175.677C30.9994 175.45 30.9017 175.245 30.7517 175.064C30.6017 174.877 30.404 174.73 30.1585 174.62C29.9176 174.507 29.629 174.45 29.2926 174.45C28.8426 174.45 28.4631 174.545 28.154 174.736C27.8449 174.923 27.6903 175.173 27.6903 175.486C27.6903 175.736 27.7903 175.948 27.9903 176.12C28.1903 176.293 28.5335 176.432 29.0199 176.536L30.9153 176.918C31.9335 177.127 32.6926 177.464 33.1926 177.927C33.6926 178.391 33.9426 179 33.9426 179.755C33.9426 180.441 33.7403 181.043 33.3358 181.561C32.9358 182.08 32.3858 182.484 31.6858 182.775C30.9903 183.061 30.1881 183.205 29.279 183.205C27.8926 183.205 26.7881 182.916 25.9653 182.339C25.1472 181.757 24.6676 180.966 24.5267 179.966L27.3835 179.816C27.4699 180.239 27.679 180.561 28.0108 180.784C28.3426 181.002 28.7676 181.111 29.2858 181.111C29.7949 181.111 30.204 181.014 30.5131 180.818C30.8267 180.618 30.9858 180.361 30.9903 180.048C30.9858 179.784 30.8744 179.568 30.6563 179.4C30.4381 179.227 30.1017 179.095 29.6472 179.005L27.8335 178.643C26.8108 178.439 26.0494 178.084 25.5494 177.58C25.054 177.075 24.8063 176.432 24.8063 175.65C24.8063 174.977 24.9881 174.398 25.3517 173.911C25.7199 173.425 26.2358 173.05 26.8994 172.786C27.5676 172.523 28.3494 172.391 29.2449 172.391C30.5676 172.391 31.6085 172.67 32.3676 173.23C33.1313 173.789 33.5767 174.55 33.704 175.514ZM40.5443 183.205C39.467 183.205 38.5398 182.986 37.7625 182.55C36.9898 182.109 36.3943 181.486 35.9761 180.682C35.558 179.873 35.3489 178.916 35.3489 177.811C35.3489 176.734 35.558 175.789 35.9761 174.975C36.3943 174.161 36.983 173.527 37.742 173.073C38.5057 172.618 39.4011 172.391 40.4284 172.391C41.1193 172.391 41.7625 172.502 42.358 172.725C42.958 172.943 43.4807 173.273 43.9261 173.714C44.3761 174.155 44.7261 174.709 44.9761 175.377C45.2261 176.041 45.3511 176.818 45.3511 177.709V178.507H36.508V176.707H42.617C42.617 176.289 42.5261 175.918 42.3443 175.595C42.1625 175.273 41.9102 175.02 41.5875 174.839C41.2693 174.652 40.8989 174.559 40.4761 174.559C40.0352 174.559 39.6443 174.661 39.3034 174.866C38.967 175.066 38.7034 175.336 38.5125 175.677C38.3216 176.014 38.2239 176.389 38.2193 176.802V178.514C38.2193 179.032 38.3148 179.48 38.5057 179.857C38.7011 180.234 38.9761 180.525 39.3307 180.73C39.6852 180.934 40.1057 181.036 40.592 181.036C40.9148 181.036 41.2102 180.991 41.4784 180.9C41.7466 180.809 41.9761 180.673 42.167 180.491C42.358 180.309 42.5034 180.086 42.6034 179.823L45.2898 180C45.1534 180.645 44.8739 181.209 44.4511 181.691C44.033 182.168 43.492 182.541 42.8284 182.809C42.1693 183.073 41.408 183.205 40.5443 183.205ZM55.5494 183.17C54.754 183.17 54.0335 182.966 53.3881 182.557C52.7472 182.143 52.2381 181.536 51.8608 180.736C51.4881 179.932 51.3017 178.945 51.3017 177.777C51.3017 176.577 51.4949 175.58 51.8813 174.784C52.2676 173.984 52.7813 173.386 53.4222 172.991C54.0676 172.591 54.7744 172.391 55.5426 172.391C56.129 172.391 56.6176 172.491 57.0085 172.691C57.404 172.886 57.7222 173.132 57.9631 173.427C58.2085 173.718 58.3949 174.005 58.5222 174.286H58.6108V169.036H61.5085V183H58.6449V181.323H58.5222C58.3858 181.614 58.1926 181.902 57.9426 182.189C57.6972 182.47 57.3767 182.705 56.9813 182.891C56.5903 183.077 56.1131 183.17 55.5494 183.17ZM56.4699 180.859C56.9381 180.859 57.3335 180.732 57.6563 180.477C57.9835 180.218 58.2335 179.857 58.4063 179.393C58.5835 178.93 58.6722 178.386 58.6722 177.764C58.6722 177.141 58.5858 176.6 58.4131 176.141C58.2403 175.682 57.9903 175.327 57.6631 175.077C57.3358 174.827 56.9381 174.702 56.4699 174.702C55.9926 174.702 55.5903 174.832 55.2631 175.091C54.9358 175.35 54.6881 175.709 54.5199 176.168C54.3517 176.627 54.2676 177.159 54.2676 177.764C54.2676 178.373 54.3517 178.911 54.5199 179.38C54.6926 179.843 54.9403 180.207 55.2631 180.47C55.5903 180.73 55.9926 180.859 56.4699 180.859ZM68.6693 183.205C67.592 183.205 66.6648 182.986 65.8875 182.55C65.1148 182.109 64.5193 181.486 64.1011 180.682C63.683 179.873 63.4739 178.916 63.4739 177.811C63.4739 176.734 63.683 175.789 64.1011 174.975C64.5193 174.161 65.108 173.527 65.867 173.073C66.6307 172.618 67.5261 172.391 68.5534 172.391C69.2443 172.391 69.8875 172.502 70.483 172.725C71.083 172.943 71.6057 173.273 72.0511 173.714C72.5011 174.155 72.8511 174.709 73.1011 175.377C73.3511 176.041 73.4761 176.818 73.4761 177.709V178.507H64.633V176.707H70.742C70.742 176.289 70.6511 175.918 70.4693 175.595C70.2875 175.273 70.0352 175.02 69.7125 174.839C69.3943 174.652 69.0239 174.559 68.6011 174.559C68.1602 174.559 67.7693 174.661 67.4284 174.866C67.092 175.066 66.8284 175.336 66.6375 175.677C66.4466 176.014 66.3489 176.389 66.3443 176.802V178.514C66.3443 179.032 66.4398 179.48 66.6307 179.857C66.8261 180.234 67.1011 180.525 67.4557 180.73C67.8102 180.934 68.2307 181.036 68.717 181.036C69.0398 181.036 69.3352 180.991 69.6034 180.9C69.8716 180.809 70.1011 180.673 70.292 180.491C70.483 180.309 70.6284 180.086 70.7284 179.823L73.4148 180C73.2784 180.645 72.9989 181.209 72.5761 181.691C72.158 182.168 71.617 182.541 70.9534 182.809C70.2943 183.073 69.533 183.205 68.6693 183.205ZM83.6744 183.17C82.879 183.17 82.1585 182.966 81.5131 182.557C80.8722 182.143 80.3631 181.536 79.9858 180.736C79.6131 179.932 79.4267 178.945 79.4267 177.777C79.4267 176.577 79.6199 175.58 80.0063 174.784C80.3926 173.984 80.9063 173.386 81.5472 172.991C82.1926 172.591 82.8994 172.391 83.6676 172.391C84.254 172.391 84.7426 172.491 85.1335 172.691C85.529 172.886 85.8472 173.132 86.0881 173.427C86.3335 173.718 86.5199 174.005 86.6472 174.286H86.7358V169.036H89.6335V183H86.7699V181.323H86.6472C86.5108 181.614 86.3176 181.902 86.0676 182.189C85.8222 182.47 85.5017 182.705 85.1063 182.891C84.7153 183.077 84.2381 183.17 83.6744 183.17ZM84.5949 180.859C85.0631 180.859 85.4585 180.732 85.7813 180.477C86.1085 180.218 86.3585 179.857 86.5313 179.393C86.7085 178.93 86.7972 178.386 86.7972 177.764C86.7972 177.141 86.7108 176.6 86.5381 176.141C86.3653 175.682 86.1153 175.327 85.7881 175.077C85.4608 174.827 85.0631 174.702 84.5949 174.702C84.1176 174.702 83.7153 174.832 83.3881 175.091C83.0608 175.35 82.8131 175.709 82.6449 176.168C82.4767 176.627 82.3926 177.159 82.3926 177.764C82.3926 178.373 82.4767 178.911 82.6449 179.38C82.8176 179.843 83.0653 180.207 83.3881 180.47C83.7153 180.73 84.1176 180.859 84.5949 180.859ZM96.7534 183.205C95.6943 183.205 94.7784 182.98 94.0057 182.53C93.2375 182.075 92.6443 181.443 92.2261 180.634C91.808 179.82 91.5989 178.877 91.5989 177.805C91.5989 176.723 91.808 175.777 92.2261 174.968C92.6443 174.155 93.2375 173.523 94.0057 173.073C94.7784 172.618 95.6943 172.391 96.7534 172.391C97.8125 172.391 98.7261 172.618 99.4943 173.073C100.267 173.523 100.863 174.155 101.281 174.968C101.699 175.777 101.908 176.723 101.908 177.805C101.908 178.877 101.699 179.82 101.281 180.634C100.863 181.443 100.267 182.075 99.4943 182.53C98.7261 182.98 97.8125 183.205 96.7534 183.205ZM96.767 180.955C97.2489 180.955 97.6511 180.818 97.9739 180.545C98.2966 180.268 98.5398 179.891 98.7034 179.414C98.8716 178.936 98.9557 178.393 98.9557 177.784C98.9557 177.175 98.8716 176.632 98.7034 176.155C98.5398 175.677 98.2966 175.3 97.9739 175.023C97.6511 174.745 97.2489 174.607 96.767 174.607C96.2807 174.607 95.8716 174.745 95.5398 175.023C95.2125 175.3 94.9648 175.677 94.7966 176.155C94.633 176.632 94.5511 177.175 94.5511 177.784C94.5511 178.393 94.633 178.936 94.7966 179.414C94.9648 179.891 95.2125 180.268 95.5398 180.545C95.8716 180.818 96.2807 180.955 96.767 180.955ZM106.701 176.945V183H103.797V172.527H106.565V174.375H106.688C106.919 173.766 107.308 173.284 107.853 172.93C108.399 172.57 109.06 172.391 109.838 172.391C110.565 172.391 111.199 172.55 111.74 172.868C112.281 173.186 112.701 173.641 113.001 174.232C113.301 174.818 113.451 175.518 113.451 176.332V183H110.547V176.85C110.551 176.209 110.388 175.709 110.056 175.35C109.724 174.986 109.267 174.805 108.685 174.805C108.294 174.805 107.949 174.889 107.649 175.057C107.353 175.225 107.122 175.47 106.953 175.793C106.79 176.111 106.706 176.495 106.701 176.945ZM118.645 176.945V183H115.74V172.527H118.509V174.375H118.631C118.863 173.766 119.252 173.284 119.797 172.93C120.343 172.57 121.004 172.391 121.781 172.391C122.509 172.391 123.143 172.55 123.684 172.868C124.224 173.186 124.645 173.641 124.945 174.232C125.245 174.818 125.395 175.518 125.395 176.332V183H122.49V176.85C122.495 176.209 122.331 175.709 121.999 175.35C121.668 174.986 121.211 174.805 120.629 174.805C120.238 174.805 119.893 174.889 119.593 175.057C119.297 175.225 119.065 175.47 118.897 175.793C118.734 176.111 118.649 176.495 118.645 176.945ZM132.457 183.205C131.38 183.205 130.452 182.986 129.675 182.55C128.902 182.109 128.307 181.486 127.889 180.682C127.47 179.873 127.261 178.916 127.261 177.811C127.261 176.734 127.47 175.789 127.889 174.975C128.307 174.161 128.895 173.527 129.655 173.073C130.418 172.618 131.314 172.391 132.341 172.391C133.032 172.391 133.675 172.502 134.27 172.725C134.87 172.943 135.393 173.273 135.839 173.714C136.289 174.155 136.639 174.709 136.889 175.377C137.139 176.041 137.264 176.818 137.264 177.709V178.507H128.42V176.707H134.53C134.53 176.289 134.439 175.918 134.257 175.595C134.075 175.273 133.823 175.02 133.5 174.839C133.182 174.652 132.811 174.559 132.389 174.559C131.948 174.559 131.557 174.661 131.216 174.866C130.88 175.066 130.616 175.336 130.425 175.677C130.234 176.014 130.136 176.389 130.132 176.802V178.514C130.132 179.032 130.227 179.48 130.418 179.857C130.614 180.234 130.889 180.525 131.243 180.73C131.598 180.934 132.018 181.036 132.505 181.036C132.827 181.036 133.123 180.991 133.391 180.9C133.659 180.809 133.889 180.673 134.08 180.491C134.27 180.309 134.416 180.086 134.516 179.823L137.202 180C137.066 180.645 136.786 181.209 136.364 181.691C135.945 182.168 135.405 182.541 134.741 182.809C134.082 183.073 133.32 183.205 132.457 183.205ZM131.23 171.177L132.675 168.075H135.361L133.282 171.177H131.23ZM143.932 183.205C142.855 183.205 141.927 182.986 141.15 182.55C140.377 182.109 139.782 181.486 139.364 180.682C138.945 179.873 138.736 178.916 138.736 177.811C138.736 176.734 138.945 175.789 139.364 174.975C139.782 174.161 140.37 173.527 141.13 173.073C141.893 172.618 142.789 172.391 143.816 172.391C144.507 172.391 145.15 172.502 145.745 172.725C146.345 172.943 146.868 173.273 147.314 173.714C147.764 174.155 148.114 174.709 148.364 175.377C148.614 176.041 148.739 176.818 148.739 177.709V178.507H139.895V176.707H146.005C146.005 176.289 145.914 175.918 145.732 175.595C145.55 175.273 145.298 175.02 144.975 174.839C144.657 174.652 144.286 174.559 143.864 174.559C143.423 174.559 143.032 174.661 142.691 174.866C142.355 175.066 142.091 175.336 141.9 175.677C141.709 176.014 141.611 176.389 141.607 176.802V178.514C141.607 179.032 141.702 179.48 141.893 179.857C142.089 180.234 142.364 180.525 142.718 180.73C143.073 180.934 143.493 181.036 143.98 181.036C144.302 181.036 144.598 180.991 144.866 180.9C145.134 180.809 145.364 180.673 145.555 180.491C145.745 180.309 145.891 180.086 145.991 179.823L148.677 180C148.541 180.645 148.261 181.209 147.839 181.691C147.42 182.168 146.88 182.541 146.216 182.809C145.557 183.073 144.795 183.205 143.932 183.205ZM159.348 175.514L156.689 175.677C156.643 175.45 156.545 175.245 156.395 175.064C156.245 174.877 156.048 174.73 155.802 174.62C155.561 174.507 155.273 174.45 154.936 174.45C154.486 174.45 154.107 174.545 153.798 174.736C153.489 174.923 153.334 175.173 153.334 175.486C153.334 175.736 153.434 175.948 153.634 176.12C153.834 176.293 154.177 176.432 154.664 176.536L156.559 176.918C157.577 177.127 158.336 177.464 158.836 177.927C159.336 178.391 159.586 179 159.586 179.755C159.586 180.441 159.384 181.043 158.98 181.561C158.58 182.08 158.03 182.484 157.33 182.775C156.634 183.061 155.832 183.205 154.923 183.205C153.536 183.205 152.432 182.916 151.609 182.339C150.791 181.757 150.311 180.966 150.17 179.966L153.027 179.816C153.114 180.239 153.323 180.561 153.655 180.784C153.986 181.002 154.411 181.111 154.93 181.111C155.439 181.111 155.848 181.014 156.157 180.818C156.47 180.618 156.63 180.361 156.634 180.048C156.63 179.784 156.518 179.568 156.3 179.4C156.082 179.227 155.745 179.095 155.291 179.005L153.477 178.643C152.455 178.439 151.693 178.084 151.193 177.58C150.698 177.075 150.45 176.432 150.45 175.65C150.45 174.977 150.632 174.398 150.995 173.911C151.364 173.425 151.88 173.05 152.543 172.786C153.211 172.523 153.993 172.391 154.889 172.391C156.211 172.391 157.252 172.67 158.011 173.23C158.775 173.789 159.22 174.55 159.348 175.514Z" fill="#0E0B01"/>
<path d="M890.534 173.925H887.548C887.493 173.539 887.382 173.195 887.214 172.895C887.045 172.591 886.83 172.332 886.566 172.118C886.302 171.905 885.998 171.741 885.652 171.627C885.311 171.514 884.941 171.457 884.541 171.457C883.818 171.457 883.189 171.636 882.652 171.995C882.116 172.35 881.7 172.868 881.405 173.55C881.109 174.227 880.961 175.05 880.961 176.018C880.961 177.014 881.109 177.85 881.405 178.527C881.705 179.205 882.123 179.716 882.659 180.061C883.195 180.407 883.816 180.58 884.52 180.58C884.916 180.58 885.282 180.527 885.618 180.423C885.959 180.318 886.261 180.166 886.525 179.966C886.789 179.761 887.007 179.514 887.18 179.223C887.357 178.932 887.48 178.6 887.548 178.227L890.534 178.241C890.457 178.882 890.264 179.5 889.955 180.095C889.65 180.686 889.239 181.216 888.72 181.684C888.207 182.148 887.593 182.516 886.88 182.789C886.17 183.057 885.368 183.191 884.473 183.191C883.227 183.191 882.114 182.909 881.132 182.345C880.155 181.782 879.382 180.966 878.814 179.898C878.25 178.83 877.968 177.536 877.968 176.018C877.968 174.495 878.255 173.2 878.827 172.132C879.4 171.064 880.177 170.25 881.159 169.691C882.141 169.127 883.245 168.845 884.473 168.845C885.282 168.845 886.032 168.959 886.723 169.186C887.418 169.414 888.034 169.745 888.57 170.182C889.107 170.614 889.543 171.143 889.88 171.77C890.22 172.398 890.439 173.116 890.534 173.925ZM895.501 169.036V183H892.597V169.036H895.501ZM897.828 183V172.527H900.732V183H897.828ZM899.287 171.177C898.855 171.177 898.485 171.034 898.176 170.748C897.871 170.457 897.719 170.109 897.719 169.705C897.719 169.305 897.871 168.961 898.176 168.675C898.485 168.384 898.855 168.239 899.287 168.239C899.719 168.239 900.087 168.384 900.391 168.675C900.701 168.961 900.855 169.305 900.855 169.705C900.855 170.109 900.701 170.457 900.391 170.748C900.087 171.034 899.719 171.177 899.287 171.177ZM907.832 183.205C906.755 183.205 905.827 182.986 905.05 182.55C904.277 182.109 903.682 181.486 903.264 180.682C902.845 179.873 902.636 178.916 902.636 177.811C902.636 176.734 902.845 175.789 903.264 174.975C903.682 174.161 904.27 173.527 905.03 173.073C905.793 172.618 906.689 172.391 907.716 172.391C908.407 172.391 909.05 172.502 909.645 172.725C910.245 172.943 910.768 173.273 911.214 173.714C911.664 174.155 912.014 174.709 912.264 175.377C912.514 176.041 912.639 176.818 912.639 177.709V178.507H903.795V176.707H909.905C909.905 176.289 909.814 175.918 909.632 175.595C909.45 175.273 909.198 175.02 908.875 174.839C908.557 174.652 908.186 174.559 907.764 174.559C907.323 174.559 906.932 174.661 906.591 174.866C906.255 175.066 905.991 175.336 905.8 175.677C905.609 176.014 905.511 176.389 905.507 176.802V178.514C905.507 179.032 905.602 179.48 905.793 179.857C905.989 180.234 906.264 180.525 906.618 180.73C906.973 180.934 907.393 181.036 907.88 181.036C908.202 181.036 908.498 180.991 908.766 180.9C909.034 180.809 909.264 180.673 909.455 180.491C909.645 180.309 909.791 180.086 909.891 179.823L912.577 180C912.441 180.645 912.161 181.209 911.739 181.691C911.32 182.168 910.78 182.541 910.116 182.809C909.457 183.073 908.695 183.205 907.832 183.205ZM917.439 176.945V183H914.534V172.527H917.302V174.375H917.425C917.657 173.766 918.045 173.284 918.591 172.93C919.136 172.57 919.798 172.391 920.575 172.391C921.302 172.391 921.936 172.55 922.477 172.868C923.018 173.186 923.439 173.641 923.739 174.232C924.039 174.818 924.189 175.518 924.189 176.332V183H921.284V176.85C921.289 176.209 921.125 175.709 920.793 175.35C920.461 174.986 920.005 174.805 919.423 174.805C919.032 174.805 918.686 174.889 918.386 175.057C918.091 175.225 917.859 175.47 917.691 175.793C917.527 176.111 917.443 176.495 917.439 176.945ZM932.048 172.527V174.709H925.741V172.527H932.048ZM927.173 170.018H930.078V179.782C930.078 180.05 930.119 180.259 930.201 180.409C930.282 180.555 930.396 180.657 930.541 180.716C930.691 180.775 930.864 180.805 931.06 180.805C931.196 180.805 931.332 180.793 931.469 180.77C931.605 180.743 931.71 180.723 931.782 180.709L932.239 182.87C932.094 182.916 931.889 182.968 931.626 183.027C931.362 183.091 931.041 183.13 930.664 183.143C929.964 183.17 929.351 183.077 928.823 182.864C928.301 182.65 927.894 182.318 927.603 181.868C927.312 181.418 927.169 180.85 927.173 180.164V170.018Z" fill="#0E0B01"/>
</svg>
